<svg width="27" height="28" viewBox="0 0 27 28" fill="none" xmlns="http://www.w3.org/2000/svg">
<path d="M25.5475 24.3473L15.5589 14.0108L15.2567 13.698L15.5589 13.3853L25.5504 3.04581L25.5558 3.04019L25.5559 3.04024C25.6939 2.90229 25.8048 2.73643 25.8814 2.55192C25.958 2.36738 25.9985 2.16838 26.0002 1.96663C26.0019 1.76488 25.9647 1.56513 25.8912 1.37919C25.8177 1.19326 25.7095 1.02535 25.5738 0.884852C25.438 0.744394 25.2775 0.634185 25.1019 0.559855C24.9264 0.485541 24.7389 0.448359 24.5502 0.450056C24.3615 0.451752 24.1746 0.492302 24.0003 0.569795C23.826 0.647306 23.6672 0.760442 23.5338 0.903402L23.5284 0.909113L23.5284 0.909066L13.5369 11.2486L13.2133 11.5835L12.8897 11.2486L2.89831 0.909115C2.89829 0.909098 2.89828 0.909082 2.89826 0.909066C2.62738 0.628861 2.2634 0.474421 1.88727 0.474421C1.51116 0.474421 1.14721 0.628843 0.876332 0.909017L25.5475 24.3473ZM25.5475 24.3473C25.8097 24.6296 25.9571 25.0101 25.9538 25.4078C25.9505 25.8068 25.7957 26.1856 25.5274 26.4632C25.2595 26.7404 24.9005 26.8947 24.5285 26.898C24.1578 26.9014 23.7975 26.7545 23.5255 26.484L13.5369 16.1475L13.2133 15.8126L12.8897 16.1475L2.90118 26.484C2.6292 26.7545 2.2689 26.9014 1.89811 26.898C1.52614 26.8947 1.16711 26.7404 0.899279 26.4632C0.630963 26.1856 0.476198 25.8068 0.472848 25.4078C0.469508 25.0101 0.616969 24.6296 0.879205 24.3473L10.8678 14.0108L11.1699 13.698L10.8678 13.3853L0.876332 3.04586C0.876316 3.04584 0.8763 3.04583 0.876284 3.04581C0.605003 2.76497 0.45 2.38095 0.45 1.97744C0.45 1.57395 0.604985 1.18995 0.876237 0.909115L25.5475 24.3473Z" fill="#A6A6A6" stroke="white" stroke-width="0.9"/>
</svg>
