<svg width="18" height="18" viewBox="0 0 18 18" fill="none" xmlns="http://www.w3.org/2000/svg">
<path d="M17.3678 5.96715V5.9847L17.3738 6.0012C18.0754 7.93872 18.0754 10.0613 17.3738 11.9988L17.3678 12.0153V12.0328V12.0331V12.0334V12.0336V12.0339V12.0342V12.0344V12.0347V12.0349V12.0352V12.0354V12.0357V12.0359V12.0362V12.0364V12.0367V12.0369V12.0372V12.0374V12.0377V12.0379V12.0382V12.0384V12.0387V12.0389V12.0391V12.0394V12.0396V12.0399V12.0401V12.0403V12.0406V12.0408V12.041V12.0413V12.0415V12.0417V12.0419V12.0422V12.0424V12.0426V12.0428V12.0431V12.0433V12.0435V12.0437V12.044V12.0442V12.0444V12.0446V12.0448V12.045V12.0452V12.0455V12.0457V12.0459V12.0461V12.0463V12.0465V12.0467V12.0469V12.0471V12.0473V12.0475V12.0477V12.0479V12.0481V12.0483V12.0485V12.0487V12.0489V12.0491V12.0493V12.0495V12.0497V12.0499V12.0501V12.0503V12.0505V12.0507V12.0509V12.0511V12.0512V12.0514V12.0516V12.0518V12.052V12.0522V12.0523V12.0525V12.0527V12.0529V12.0531V12.0532V12.0534V12.0536V12.0538V12.0539V12.0541V12.0543V12.0545V12.0546V12.0548V12.055V12.0551V12.0553V12.0555V12.0556V12.0558V12.056V12.0561V12.0563V12.0565V12.0566V12.0568V12.0569V12.0571V12.0573V12.0574V12.0576V12.0577V12.0579V12.058V12.0582V12.0583V12.0585V12.0586V12.0588V12.0589V12.0591V12.0592V12.0594V12.0595V12.0597V12.0598V12.06V12.0601V12.0602C16.7382 13.7704 15.6005 15.2468 14.1077 16.2909C12.61 17.3383 10.827 17.9 9 17.9C7.17297 17.9 5.39001 17.3383 3.89232 16.2909C2.39945 15.2468 1.26182 13.7704 0.632197 12.0602V12.0601V12.06V12.0598V12.0596V12.0594V12.0592V12.059V12.0588V12.0587V12.0585V12.0583V12.0581V12.0579V12.0578V12.0576V12.0574V12.0572V12.0571V12.0569V12.0567V12.0565V12.0564V12.0562V12.056V12.0559V12.0557V12.0555V12.0554V12.0552V12.055V12.0549V12.0547V12.0545V12.0544V12.0542V12.054V12.0539V12.0537V12.0536V12.0534V12.0533V12.0531V12.0529V12.0528V12.0526V12.0525V12.0523V12.0522V12.052V12.0519V12.0517V12.0516V12.0514V12.0513V12.0512V12.051V12.0509V12.0507V12.0506V12.0504V12.0503V12.0502V12.05V12.0499V12.0497V12.0496V12.0495V12.0493V12.0492V12.0491V12.0489V12.0488V12.0487V12.0485V12.0484V12.0483V12.0481V12.048V12.0479V12.0478V12.0476V12.0475V12.0474V12.0473V12.0471V12.047V12.0469V12.0468V12.0467V12.0465V12.0464V12.0463V12.0462V12.0461V12.0459V12.0458V12.0457V12.0456V12.0455V12.0454V12.0453V12.0452V12.045V12.0449V12.0448V12.0447V12.0446V12.0445V12.0444V12.0443V12.0442V12.0441V12.044V12.0439V12.0438V12.0437V12.0436V12.0435V12.0434V12.0433V12.0432V12.0431V12.043V12.0429V12.0428V12.0427V12.0426V12.0425V12.0424V12.0423V12.0422V12.0421V12.042V12.0419V12.0418V12.0417V12.0417V12.0416V12.0415V12.0414V12.0413V12.0412V12.0411V12.041V12.041V12.0409V12.0408V12.0407V12.0406V12.0405V12.0405V12.0404V12.0403V12.0402V12.0401V12.0401V12.04V12.0399V12.0398V12.0398V12.0397V12.0396V12.0395V12.0395V12.0394V12.0393V12.0392V12.0392V12.0391V12.039V12.039V12.0389V12.0388V12.0388V12.0387V12.0386V12.0386V12.0385V12.0384V12.0384V12.0383V12.0382V12.0382V12.0381V12.038V12.038V12.0379V12.0379V12.0378V12.0377V12.0377V12.0376V12.0376V12.0375V12.0374V12.0374V12.0373V12.0373V12.0372V12.0372V12.0371V12.037V12.037V12.0369V12.0369V12.0368V12.0368V12.0367V12.0367V12.0366V12.0366V12.0365V12.0365V12.0364V12.0364V12.0363V12.0363V12.0362V12.0362V12.0361V12.0361V12.036V12.036V12.036V12.0359V12.0359V12.0358V12.0358V12.0357V12.0357V12.0357V12.0356V12.0356V12.0355V12.0355V12.0355V12.0354V12.0354V12.0353V12.0353V12.0353V12.0352V12.0352V12.0352V12.0351V12.0351V12.035V12.035V12.035V12.0349V12.0349V12.0349V12.0348V12.0348V12.0348V12.0347V12.0347V12.0347V12.0346V12.0346V12.0346V12.0346V12.0345V12.0345V12.0345V12.0344V12.0344V12.0344V12.0344V12.0343V12.0343V12.0343V12.0342V12.0342V12.0342V12.0342V12.0341V12.0341V12.0341V12.0341V12.034V12.034V12.034V12.034V12.034V12.0339V12.0339V12.0339V12.0339V12.0338V12.0338V12.0338V12.0338V12.0338V12.0337V12.0337V12.0337V12.0337V12.0337V12.0337V12.0336V12.0336V12.0336V12.0336V12.0336V12.0336V12.0335V12.0335V12.0335V12.0335V12.0335V12.0335V12.0334V12.0334V12.0334V12.0334V12.0334V12.0334V12.0334V12.0333V12.0333V12.0333V12.0333V12.0333V12.0333V12.0333V12.0333V12.0332V12.0332V12.0332V12.0332V12.0332V12.0332V12.0332V12.0332V12.0332V12.0332V12.0331V12.0331V12.0331V12.0331V12.0331V12.0331V12.0331V12.0331V12.0331V12.0331V12.0331V12.033V12.033V12.033V12.033V12.033V12.033V12.033V12.033V12.033V12.0329V12.0329V12.0329V12.0329V12.0329V12.0329V12.0329V12.0329V12.0329V12.0329V12.0329V12.0328V12.0153L0.626222 11.9988C-0.0754072 10.0613 -0.0754072 7.93872 0.626222 6.0012L0.632197 5.9847V5.96715V5.96689V5.96663V5.96636V5.9661V5.96584V5.96558V5.96533V5.96507V5.96481V5.96456V5.96431V5.96405V5.9638V5.96355V5.9633V5.96305V5.9628V5.96256V5.96231V5.96207V5.96182V5.96158V5.96134V5.9611V5.96086V5.96062V5.96038V5.96015V5.95991V5.95967V5.95944V5.95921V5.95898V5.95875V5.95852V5.95829V5.95806V5.95783V5.9576V5.95738V5.95716V5.95693V5.95671V5.95649V5.95627V5.95605V5.95583V5.95561V5.9554V5.95518V5.95496V5.95475V5.95454V5.95433V5.95411V5.9539V5.9537V5.95349V5.95328V5.95307V5.95287V5.95266V5.95246V5.95226V5.95205V5.95185V5.95165V5.95145V5.95125V5.95106V5.95086V5.95066V5.95047V5.95028V5.95008V5.94989V5.9497V5.94951V5.94932V5.94913V5.94894V5.94876V5.94857V5.94838V5.9482V5.94802V5.94783V5.94765V5.94747V5.94729V5.94711V5.94693V5.94676V5.94658V5.9464V5.94623V5.94605V5.94588V5.94571V5.94554V5.94537V5.9452V5.94503V5.94486V5.94469V5.94452V5.94436V5.94419V5.94403V5.94387V5.9437V5.94354V5.94338V5.94322V5.94306V5.9429V5.94274V5.94259V5.94243V5.94228V5.94212V5.94197V5.94181V5.94166V5.94151V5.94136V5.94121V5.94106V5.94091V5.94076V5.94062V5.94047V5.94033V5.94018V5.94004V5.9399V5.93979C1.26182 4.2296 2.39945 2.75317 3.89232 1.70912C5.39001 0.661696 7.17297 0.1 9 0.1C10.827 0.1 12.61 0.661696 14.1077 1.70912C15.6005 2.75316 16.7382 4.22959 17.3678 5.93979V5.93985V5.94004V5.94023V5.94042V5.9406V5.94079V5.94097V5.94116V5.94134V5.94152V5.9417V5.94188V5.94206V5.94224V5.94242V5.94259V5.94277V5.94295V5.94312V5.94329V5.94346V5.94364V5.94381V5.94398V5.94415V5.94431V5.94448V5.94465V5.94482V5.94498V5.94514V5.94531V5.94547V5.94563V5.94579V5.94595V5.94611V5.94627V5.94643V5.94659V5.94674V5.9469V5.94705V5.94721V5.94736V5.94751V5.94766V5.94781V5.94796V5.94811V5.94826V5.94841V5.94856V5.9487V5.94885V5.94899V5.94913V5.94928V5.94942V5.94956V5.9497V5.94984V5.94998V5.95012V5.95026V5.95039V5.95053V5.95067V5.9508V5.95094V5.95107V5.9512V5.95133V5.95146V5.95159V5.95172V5.95185V5.95198V5.95211V5.95224V5.95236V5.95249V5.95261V5.95274V5.95286V5.95298V5.9531V5.95322V5.95334V5.95346V5.95358V5.9537V5.95382V5.95394V5.95405V5.95417V5.95428V5.9544V5.95451V5.95462V5.95474V5.95485V5.95496V5.95507V5.95518V5.95529V5.9554V5.9555V5.95561V5.95572V5.95582V5.95593V5.95603V5.95613V5.95624V5.95634V5.95644V5.95654V5.95664V5.95674V5.95684V5.95694V5.95704V5.95714V5.95723V5.95733V5.95742V5.95752V5.95761V5.95771V5.9578V5.95789V5.95798V5.95807V5.95816V5.95825V5.95834V5.95843V5.95852V5.95861V5.95869V5.95878V5.95887V5.95895V5.95904V5.95912V5.9592V5.95929V5.95937V5.95945V5.95953V5.95961V5.95969V5.95977V5.95985V5.95993V5.96001V5.96008V5.96016V5.96024V5.96031V5.96039V5.96046V5.96053V5.96061V5.96068V5.96075V5.96082V5.9609V5.96097V5.96104V5.9611V5.96117V5.96124V5.96131V5.96138V5.96144V5.96151V5.96158V5.96164V5.96171V5.96177V5.96184V5.9619V5.96196V5.96202V5.96209V5.96215V5.96221V5.96227V5.96233V5.96239V5.96245V5.9625V5.96256V5.96262V5.96268V5.96273V5.96279V5.96284V5.9629V5.96295V5.96301V5.96306V5.96311V5.96317V5.96322V5.96327V5.96332V5.96337V5.96342V5.96347V5.96352V5.96357V5.96362V5.96367V5.96372V5.96376V5.96381V5.96386V5.9639V5.96395V5.96399V5.96404V5.96408V5.96413V5.96417V5.96421V5.96426V5.9643V5.96434V5.96438V5.96442V5.96446V5.9645V5.96454V5.96458V5.96462V5.96466V5.9647V5.96474V5.96477V5.96481V5.96485V5.96488V5.96492V5.96495V5.96499V5.96502V5.96506V5.96509V5.96513V5.96516V5.96519V5.96522V5.96526V5.96529V5.96532V5.96535V5.96538V5.96541V5.96544V5.96547V5.9655V5.96553V5.96556V5.96559V5.96561V5.96564V5.96567V5.9657V5.96572V5.96575V5.96578V5.9658V5.96583V5.96585V5.96588V5.9659V5.96592V5.96595V5.96597V5.96599V5.96602V5.96604V5.96606V5.96608V5.96611V5.96613V5.96615V5.96617V5.96619V5.96621V5.96623V5.96625V5.96627V5.96629V5.96631V5.96633V5.96634V5.96636V5.96638V5.9664V5.96641V5.96643V5.96645V5.96646V5.96648V5.9665V5.96651V5.96653V5.96654V5.96656V5.96657V5.96659V5.96661V5.96664V5.96667V5.96669V5.96672V5.96674V5.96676V5.96678V5.96681V5.96683V5.96685V5.96686V5.96688V5.9669V5.96692V5.96693V5.96695V5.96696V5.96698V5.967V5.96702V5.96703V5.96705V5.96706V5.96708V5.9671V5.96711V5.96713V5.96715ZM1.90543 10.8308L1.92511 10.9053H2.00211H3.67944H3.79219L3.77873 10.7933C3.63542 9.60208 3.63542 8.39792 3.77873 7.20668L3.79219 7.09473H3.67944H2.00211H1.92511L1.90543 7.16918C1.58829 8.36909 1.58829 9.63091 1.90543 10.8308ZM2.74158 12.5105H2.56725L2.65526 12.661C3.20337 13.5982 3.95289 14.4015 4.84954 15.0129L4.99437 14.8837C4.61033 14.1539 4.31054 13.3828 4.1008 12.5851L4.08119 12.5105H4.00409H2.74158ZM4.00409 5.48947H4.08197L4.10104 5.41395C4.30222 4.61741 4.593 3.84628 4.96781 3.11533L4.82186 2.98751C3.93518 3.602 3.19523 4.40514 2.65501 5.33941L2.56824 5.48947H2.74158H4.00409ZM8.02098 16.0309L8.18017 16.1478V15.9503V12.6105V12.5105H8.08017H5.88883H5.76344L5.79133 12.6328C6.10251 13.9968 6.89399 15.2031 8.02098 16.0309ZM8.08017 10.9053H8.18017V10.8053V7.19473V7.09473H8.08017H5.50106H5.41413L5.40203 7.18082C5.23245 8.38767 5.23245 9.61233 5.40203 10.8192L5.41413 10.9053H5.50106H8.08017ZM8.08017 5.48947H8.18017V5.38947V2.04973V1.8522L8.02098 1.96913C6.89399 2.79692 6.10251 4.0032 5.79133 5.36723L5.76344 5.48947H5.88883H8.08017ZM15.2223 5.48947H15.3967L15.3087 5.33898C14.7606 4.40183 14.011 3.59846 13.1144 2.98708L12.9696 3.11627C13.3536 3.84605 13.6534 4.61723 13.8631 5.4149L13.8827 5.48947H13.9598H15.2223ZM9.94295 1.96913L9.78375 1.8522V2.04973V5.38947V5.48947H9.88375H12.0751H12.2005L12.1726 5.36723C11.8614 4.0032 11.0699 2.79692 9.94295 1.96913ZM9.78375 15.9503V16.1478L9.94295 16.0309C11.0699 15.2031 11.8614 13.9968 12.1726 12.6328L12.2005 12.5105H12.0751H9.88375H9.78375V12.6105V15.9503ZM12.4629 10.9053H12.5498L12.5619 10.8192C12.7315 9.61233 12.7315 8.38767 12.5619 7.18082L12.5498 7.09473H12.4629H9.88375H9.78375V7.19473V10.8053V10.9053H9.88375H12.4629ZM12.9966 14.8837L13.1414 15.0129C14.0381 14.4015 14.7876 13.5982 15.3357 12.661L15.4237 12.5105H15.2494H13.9869H13.9098L13.8902 12.5851C13.6804 13.3828 13.3807 14.1539 12.9966 14.8837ZM15.9618 10.9053H16.0388L16.0585 10.8308C16.3756 9.63091 16.3756 8.36909 16.0585 7.16918L16.0388 7.09473H15.9618H14.2845H14.1715L14.1852 7.20684C14.2578 7.80173 14.2937 8.40053 14.2927 8.99984L14.2927 9.00021C14.294 9.59949 14.2581 10.1983 14.1852 10.7931L14.1715 10.9053H14.2845H15.9618Z" fill="#282828" stroke="white" stroke-width="0.2"/>
</svg>
